# xmcd
#
# Track frame offsets: 
#        182
#        16667
#        32262
#        49657
#
# Disc length: 893 seconds
#
# Revision: 4
# Processed by: cddbd v1.5.2PL0 Copyright (c) Steve Scherf et al.
# Submitted via: ExactAudioCopy v1.1
#
DISCID=1d037b04
DTITLE=Freddie Mercury - The Great Pretender (Remix) [8 80484 2]
DYEAR=1993
DGENRE=Rock
TTITLE0=The Great Pretender (Malouf Mix)
TTITLE1=The Great Pretender
TTITLE2=In My Defence (Original Version)
TTITLE3=In My Defence
EXTD=YEAR: 1992
EXTT0=
EXTT1=
EXTT2=
EXTT3=
PLAYORDER=
